<?xml version="1.0" encoding="UTF-8"?>
<svg id="text" xmlns="http://www.w3.org/2000/svg" viewBox="0 0 680.19 375.21">
  <defs>
    <style>
      .cls-1 {
        fill: #cc9;
      }
    </style>
  </defs>
  <g>
    <path class="cls-1" d="M121.8,4.4c5.8,3.6,10.6,20.2,10.6,24,0,8.4-43,65.8-53.2,91.6,0,3,2.2,3.2,2.2,5.4,0,6-17.8,31.4-23.4,31.4-2.8,0-9.8-6.4-9.8-10.4,0-12.6,23.8-53,35.2-69.4,14.8-21.4,32.2-40.8,32.2-42.6,0-1.4-.8-2-2.2-2-35.8,0-80.2,9.2-96.2,17,5,2,18.2,1.8,18.2,6.2,0,2-1.2,2.6-3.4,2.6s-9.8-1.6-14.4-1.6c-2.4,0-4.8.4-8.6.4-7.6,0-9-.2-9-7.2,0-13.8,6.6-28.8,11.2-33.4C15.8,11.8,51.4,0,84.8,0c15,0,33.8,2.4,37,4.4Z"/>
    <path class="cls-1" d="M102.2,99.4c11-22.2,49.8-42.2,71.8-42.2,3.8,0,9.4,8,9.4,10.2,0,1.6-4,3.8-9.8,6.6,2.8.8,6.4,7.4,6.4,10.4,0,6.4-15.2,20.2-15.2,28.8,0,5.6,1.6,7,5.4,7,5.6,0,19.4-9.6,23.8-14.8.6-.6,1.2-.4,1.2.4v6.8c0,.8-.6,1.6-1.2,2.2-7.4,8-24.8,27.8-38.2,27.8-7.6,0-10.4-5.2-10.4-11.2,0-6.4,7-20.6,8.4-22.6.6-.6-.2-1.4-1-.6-4.6,6.2-28.2,30.2-36.2,30.2-10.4,0-16.8-16-16.8-27.2,0-4,.4-8,2.4-11.8ZM171.4,75c-14.2,6.2-37.4,15-49.2,26.4-4.8,4.6-6.6,10.6-6.6,15.8,0,2.4.8,4.4,3,4.4,11.2,0,44.6-39.6,52.8-46.6Z"/>
    <path class="cls-1" d="M277.8,5c3.6,0,6.2,3,6.2,6.4,0,9.2-73,89.2-74.8,91.2s-2.8,5.4-2.8,7.6c0,1,.2,1.8,1,1.8,2.4,0,44-48.8,61.4-48.8,5,0,9.2,9.6,9.2,15,0,10.6-13,21.8-23.8,29.2-7.4,5.2-13.8,8.4-13.8,9,0,2.2,6.4,8.8,9.8,8.8,5.8,0,23.2-12.4,30.2-19.8.4-.4,1.2-.4,1.2.6v5.2c0,2.2-.8,3-1.2,3.6-6.6,8-27.8,28-36.2,28-10.4,0-22-15-25.2-26.8-9.2,11.4-15.8,21.6-19.2,21.6-3.2,0-6.4-3.2-6.4-10.8v-14.2c0-29.8,70.6-107.6,84.4-107.6ZM225,108.8c3.8,0,8,.4,9.8.4,5.8,0,25.6-20.6,25.6-25.8,0-1-.4-1.4-1.4-1.4-6.2,0-21.6,13-34,26.8Z"/>
    <path class="cls-1" d="M341.8,70.4c0,1.6-2.2,3.2-5.8,5.4h3c4.6,0,5.4,4.2,5.4,9.8,0,7.8-3.4,18-9,27.6,1,.6,2.2,1,3.4,1,3.6,0,10-5.2,13.2-8.8.4-.4,1.2-.6,1.2.4v5.8c0,1.6-.8,2.8-1.2,3.2-5,6.4-14.8,10.8-21.6,10.8-1.2,0-2.4-.2-3.4-.4-7.6,8.8-16.8,15-25.8,15-13,0-21.6-11.6-21.6-30,0-21.4,30-47.2,48-47.2,6.6,0,14.2,4.2,14.2,7.4ZM327.8,80.8c-8.2,4.8-18.4,11-25.4,18.6-5,5.4-7.8,13-7.8,19,0,4,2.6,6,6.8,6.4,6.6-.2,12.4-3.2,17.2-7.6-.8-2.4-1.2-5.2-1.2-8.4,0-11.6,4.2-22,10.4-28Z"/>
    <path class="cls-1" d="M399.79,70.6c0,7.2-25.6,28.8-31.2,34.2-1.8,1.6-3.8,7.4-3.8,10.2,0,1.6.6,2.6,2,2.6,3,0,20.2-11.2,32.4-22.6,12.2-11.4,26.6-29.6,31.2-29.6,3,0,5.6,3.2,5.6,10.4,0,5.6-26,44.8-43,69.4-.4,1,.4.8.8.4,5.6-5.2,37.4-32.4,44.4-40.2.6-.6,1.2-.4,1.2.6v5.2c0,1.8-.8,3.2-1.2,3.6-27.4,30-41,43.6-50.8,54.6-13.8,15.4-12.8,19.4-15.8,19.4-4,0-6.2-11-6.2-15.4,0-6.8,23.6-44.6,35-61.2.4-.6-.2-1.2-.8-.6-7.6,8.4-29.4,25.8-34.6,25.8-4.4,0-13.6-13.8-13.6-26.2,0-24.2,35-50.4,38.6-50.4s9.8,6.8,9.8,9.8Z"/>
    <path class="cls-1" d="M439.4,99.4c11-22.2,49.8-42.2,71.8-42.2,3.8,0,9.4,8,9.4,10.2,0,1.6-4,3.8-9.8,6.6,2.8.8,6.4,7.4,6.4,10.4,0,6.4-15.2,20.2-15.2,28.8,0,5.6,1.6,7,5.4,7,5.6,0,19.4-9.6,23.8-14.8.6-.6,1.2-.4,1.2.4v6.8c0,.8-.6,1.6-1.2,2.2-7.4,8-24.8,27.8-38.2,27.8-7.6,0-10.4-5.2-10.4-11.2,0-6.4,7-20.6,8.4-22.6.6-.6-.2-1.4-1-.6-4.6,6.2-28.2,30.2-36.2,30.2-10.4,0-16.8-16-16.8-27.2,0-4,.4-8,2.4-11.8ZM508.59,75c-14.2,6.2-37.4,15-49.2,26.4-4.8,4.6-6.6,10.6-6.6,15.8,0,2.4.8,4.4,3,4.4,11.2,0,44.6-39.6,52.8-46.6Z"/>
    <path class="cls-1" d="M614.99,5c3.6,0,6.2,3,6.2,6.4,0,9.2-73,89.2-74.8,91.2-1.8,2-2.8,5.4-2.8,7.6,0,1,.2,1.8,1,1.8,2.4,0,44-48.8,61.4-48.8,5,0,9.2,9.6,9.2,15,0,10.6-13,21.8-23.8,29.2-7.4,5.2-13.8,8.4-13.8,9,0,2.2,6.4,8.8,9.8,8.8,5.8,0,23.2-12.4,30.2-19.8.4-.4,1.2-.4,1.2.6v5.2c0,2.2-.8,3-1.2,3.6-6.6,8-27.8,28-36.2,28-10.4,0-22-15-25.2-26.8-9.2,11.4-15.8,21.6-19.2,21.6-3.2,0-6.4-3.2-6.4-10.8v-14.2c0-29.8,70.6-107.6,84.4-107.6ZM562.19,108.8c3.8,0,8,.4,9.8.4,5.8,0,25.6-20.6,25.6-25.8,0-1-.4-1.4-1.4-1.4-6.2,0-21.6,13-34,26.8Z"/>
    <path class="cls-1" d="M662.19,71.6c0,6.4-5.2,13.6-11.4,19.8-7.6,7.8-16.2,14.2-16.2,22.2,0,3.4,2.4,8.2,7.6,8.2,10.8,0,24.4-11.4,29.8-16.4.4-.4,1.2-.4,1.2.4v6.4c0,1.2-.8,2.2-1.2,2.6-7.4,8.4-24,26.8-37.4,26.8-12.2,0-17.8-15.2-17.8-27.8,0-15.6,18.8-48,37.8-48,4.8,0,7.6,2,7.6,5.8ZM680.19,42.2c0,6.4-7.4,19.8-16.8,19.8-5,0-7.4-4-7.4-8,0-6.2,6-18.2,16.8-18.2,5.6,0,7.4,3.2,7.4,6.4Z"/>
  </g>
  <text/>
</svg>